# AST/ASF file generated using VICON BodyLanguage
# -----------------------------------------------
:version 1.10
:name VICON
:units
  mass 1.0
  length 0.45
  angle deg
:documentation
   .ast/.asf automatically generated from VICON data using
   VICON BodyBuilder and BodyLanguage model FoxedUp or BRILLIANT.MOD
:root
   order TX TY TZ RX RY RZ
   axis XYZ
   position 0 0 0  
   orientation 0 0 0 
:bonedata
  begin
     id 1 
     name lhipjoint
     direction 0.70531 -0.63749 0.310071 
     length 2.59589 
     axis 0 0 0  XYZ
  end
  begin
     id 2 
     name lfemur
     direction 0.34202 -0.939693 0  
     length 6.19797  
     axis 0 0 20  XYZ
    dof rx ry rz
    limits (-160.0 20.0)
           (-70.0 70.0)
           (-60.0 70.0)
  end
  begin
     id 3 
     name ltibia
     direction 0.34202 -0.939693 0   
     length 7.80054   
     axis 0 0 20   XYZ
    dof rx
    limits (-10.0 170.0)
  end
  begin
     id 4 
     name lfoot
     direction 0.0828572 -0.227648 0.970212   
     length 1.88124   
     axis -90 7.62852e-016 20   XYZ
    dof rx rz
    limits (-45.0 90.0)
           (-70.0 20.0)
  end
  begin
     id 5 
     name ltoes
     direction 1.53544e-011 -4.219e-011 1   
     length 0.948015   
     axis -90 7.62852e-016 20   XYZ
    dof rx
    limits (-90.0 20.0)
  end
  begin
     id 6 
     name rhipjoint
     direction -0.730062 -0.614543 0.29891   
     length 2.69282  
     axis 0 0 0  XYZ 
  end
  begin
     id 7 
     name rfemur
     direction -0.34202 -0.939693 0   
     length 5.86298   
     axis 0 0 -20   XYZ
    dof rx ry rz
    limits (-160.0 20.0)
           (-70.0 70.0)
           (-70.0 60.0)
  end
  begin
     id 8 
     name rtibia
     direction -0.34202 -0.939693 0   
     length 7.72374   
     axis 0 0 -20   XYZ
    dof rx
    limits (-10.0 170.0)
 end
 begin
     id 9 
     name rfoot
     direction -0.0967421 -0.265797 0.959163   
     length 2.02368  
     axis -90 -7.62852e-016 -20   XYZ
    dof rx rz
    limits (-45.0 90.0)
           (-20.0 70.0)
  end
  begin
     id 10 
     name rtoes
     direction -1.53524e-011 -4.21768e-011 1   
     length 1.01373   
     axis -90 -7.62852e-016 -20   XYZ
    dof rx
    limits (-90.0 20.0)
  end
  begin
     id 11 
     name lowerback
     direction 0.00561702 0.992801 -0.119643   
     length 2.02816   
     axis 0 0 0   XYZ
    dof rx ry rz
    limits (-20.0 45.0)
           (-30.0 30.0)
           (-30.0 30.0)
  end
  begin
     id 12 
     name upperback
     direction 0.00155544 0.995735 -0.0922509   
     length 2.02265   
     axis 0 0 0   XYZ
    dof rx ry rz
    limits (-20.0 45.0)
           (-30.0 30.0)
           (-30.0 30.0)
  end
  begin
     id 13 
     name thorax
     direction -0.000937535 0.999317 -0.0369292   
     length 2.04823   
     axis 0 0 0   XYZ
    dof rx ry rz
    limits (-20.0 45.0)
           (-30.0 30.0)
           (-30.0 30.0)
  end
  begin
     id 14 
     name lowerneck
     direction -0.0813151 0.981659 0.172436   
     length 1.8875   
     axis 0 0 0   XYZ
    dof rx ry rz
    limits (-20.0 45.0)
           (-30.0 30.0)
           (-30.0 30.0)
  end
  begin
     id 15 
     name upperneck
     direction 0.119359 0.955672 -0.269157   
     length 1.92801   
     axis 0 0 0   XYZ
    dof rx ry rz
    limits (-20.0 45.0)
           (-30.0 30.0)
           (-30.0 30.0)
  end
  begin
     id 16
     name head
     direction 0.0421007 0.992672 -0.113268  
     length 1.95809  
     axis 0 0 0   XYZ
    dof rx ry rz
    limits (-20.0 45.0)
           (-30.0 30.0)
           (-30.0 30.0)
  end
  begin
     id 17 
     name lclavicle
     direction 0.944093 0.32865 -0.0260136  
     length 3.84992  
     axis 0 0 0   XYZ
    dof ry rz
    limits (-20.0 10.0)
           (0.0 20.0)
  end
  begin
     id 18 
     name lhumerus
     direction 1 -4.48979e-011 -1.27712e-029   
     length 5.53593   
     axis 180 -30 -90   XYZ
    dof rx ry rz
    limits (-60.0 90.0)
           (-90.0 90.0)
           (-90.0 90.0)
  end
  begin
     id 19
     name lradius
     direction 1 -4.48966e-011 1.00051e-028   
     length 3.13345   
     axis 180 -30 -90   XYZ
    dof rx
    limits (-10.0 170.0)
  end
  begin
     id 20
     name lwrist
     direction 1 -4.4896e-011 2.56952e-028   
     length 1.56673   
     axis -5.12785e-016 90 90   XYZ
    dof ry
    limits (-180.0 0.0)
 end
  begin
     id 21 
     name lhand
     direction 1 -4.48934e-011 5.13905e-028   
     length 0.713374   
     axis -3.27915e-016 90 90   XYZ
    dof rx rz
    limits (-90.0 90.0)
           (-45.0 45.0)
  end
  begin
     id 22 
     name lfingers
     direction 1 -4.48973e-011 1.02781e-027   
     length 0.575141   
     axis -6.5583e-016 90 90   XYZ
    dof rx
    limits (0.0 90.0)
  end
  begin
     id 23
     name lthumb
     direction 0.707107 -6.34883e-011 0.707107   
     length 0.82579   
     axis -90 45 2.85299e-015   XYZ
    dof rx rz
    limits (-45.0 45.0)
           (-45.0 45.0)
  end
  begin
     id 24 
     name rclavicle
     direction -0.936895 0.34884 0.0232243   
     length 3.53304  
     axis 0 0 0   XYZ 
    dof ry rz
    limits (-10.0 20.0)
           (-20.0 0.0)
  end
  begin
     id 25 
     name rhumerus
     direction -1 -4.48965e-011 1.05514e-027  
     length 5.4685   
     axis 180 30 90   XYZ
    dof rx ry rz
    limits (-90.0 60.0)
           (-90.0 90.0)
           (-90.0 90.0)
  end
  begin
     id 26 
     name rradius
     direction -1 -4.48964e-011 -1.1079e-027   
     length 3.22411   
     axis 180 30 90   XYZ
    dof rx
    limits (-10.0 170.0)
  end
  begin
     id 27 
     name rwrist
     direction -1 -4.48973e-011 2.56952e-028   
     length 1.61206   
     axis -5.12785e-016 -90 -90   XYZ
    dof ry
    limits (-180.0 0.0)
  end
  begin
     id 28
     name rhand
     direction -1 -4.48957e-011 5.13905e-028   
     length 0.74528   
     axis -3.27915e-016 -90 -90   XYZ
    dof rx rz
    limits (-90.0 90.0)
           (-45.0 45.0)
  end
  begin
     id 29
     name rfingers
     direction -1 -4.4901e-011 1.02781e-027   
     length 0.600864   
     axis -6.5583e-016 -90 -90   XYZ
    dof rx
    limits (0.0 90.0)
  end
  begin
     id 30
     name rthumb
     direction -0.707107 -6.34972e-011 0.707107   
     length 0.862724   
     axis -90 -45 -2.85299e-015   XYZ
    dof rx rz
    limits (-45.0 45.0)
           (-45.0 45.0)
  end
:hierarchy
  begin
    root lhipjoint rhipjoint lowerback
    lhipjoint lfemur
    lfemur ltibia
    ltibia lfoot
    lfoot ltoes
    rhipjoint rfemur
    rfemur rtibia
    rtibia rfoot
    rfoot rtoes
    lowerback upperback
    upperback thorax
    thorax lowerneck lclavicle rclavicle
    lowerneck upperneck
    upperneck head
    lclavicle lhumerus
    lhumerus lradius
    lradius lwrist
    lwrist lhand lthumb
    lhand lfingers
    rclavicle rhumerus
    rhumerus rradius
    rradius rwrist
    rwrist rhand rthumb
    rhand rfingers
  end

#!OML:ASF G:\Work\Work\Patient Classification 1\Liu\Session 1\Liu.ASF
:FULLY-SPECIFIED
:DEGREES
286
root 13.4263 15.4077 -38.2866 -218.864 -77.3727 -129.666
lowerback 3.54649 0.873129 8.34931
upperback 2.06091 1.30902 2.29892
thorax 0.285727 0.670724 -2.33959
lowerneck -23.4171 4.19066 -4.02287
upperneck 31.0446 7.73546 -1.31702
head 14.5456 2.39682 1.55611
rclavicle 7.45443e-016 -2.69353e-014
rhumerus -45.5991 26.5878 -85.2112
rradius 82.8774
rwrist -8.81669
rhand -26.8272 38.0262
rfingers 7.12502
rthumb -0.253239 8.04656
lclavicle 7.45443e-016 -2.69353e-014
lhumerus -45.8793 -27.4993 90.0739
lradius 84.6924
lwrist 12.4627
lhand -19.7368 52.414
lfingers 7.12502
lthumb 6.59395 82.2914
rfemur -15.9778 -6.07737 30.9453
rtibia 32.9348
rfoot -18.8021 13.2313
rtoes 3.7361
lfemur -42.6491 4.76096 -21.4402
ltibia 90.7072
lfoot -5.701 15.462
ltoes -46.8086
287
root 13.2059 15.4916 -38.2873 -222.672 -78.0287 -126.448
lowerback 4.43791 0.826308 8.97009
upperback 2.10042 1.36201 2.10652
thorax -0.143818 0.686815 -2.90075
lowerneck -23.5458 4.07662 -3.76376
upperneck 30.9693 7.4314 -1.16109
head 14.5457 2.33194 1.52423
rclavicle -8.49804e-015 -1.16289e-014
rhumerus -45.3364 26.3621 -85.5005
rradius 83.4899
rwrist -9.18916
rhand -26.9266 37.9088
rfingers 7.12502
rthumb -0.349186 7.92933
lclavicle -8.49804e-015 -1.16289e-014
lhumerus -46.6665 -24.7102 90.1696
lradius 82.6684
lwrist 10.3468
lhand -19.2885 52.411
lfingers 7.12502
lthumb 7.0267 82.2743
rfemur -13.6103 -7.37932 30.4009
rtibia 31.494
rfoot -17.393 13.9169
rtoes 1.43976
lfemur -43.7409 1.59971 -20.1281
ltibia 90.492
lfoot -16.027 8.27172
ltoes 12.5465
288
root 12.9858 15.5117 -38.3035 -226.763 -78.3264 -123.463
lowerback 5.69116 0.68368 9.53324
upperback 2.30288 1.31715 2.12346
thorax -0.621776 0.64718 -3.21451
lowerneck -26.8742 4.14271 -0.942532
upperneck 34.7374 7.75472 -4.21824
head 17.4924 2.06109 -0.0924597
rclavicle -1.61513e-015 3.18055e-015
rhumerus -45.1817 26.8315 -85.7594
rradius 84.1099
rwrist -9.6512
rhand -26.6952 38.1732
rfingers 7.12502
rthumb -0.125679 8.19348
lclavicle -1.61513e-015 3.18055e-015
lhumerus -48.3765 -23.0425 90.4685
lradius 81.957
lwrist 10.2469
lhand -19.1966 51.6465
lfingers 7.12502
lthumb 7.11535 81.5068
rfemur -10.7558 -8.2103 29.9049
rtibia 30.1335
rfoot -15.8711 14.2468
rtoes -0.883994
lfemur -44.2035 2.84995 -21.7306
ltibia 88.6522
lfoot -10.3651 16.0464
ltoes -32.0536
289
root 12.7742 15.5654 -38.3479 -229.06 -78.2686 -121.27
lowerback 6.02429 0.796722 9.25702
upperback 2.24578 1.48974 2.57501
thorax -0.866554 0.71222 -2.6099
lowerneck -23.8361 4.37716 -3.58866
upperneck 31.6657 8.0189 -1.65545
head 14.9572 2.47787 1.4245
rclavicle -7.37367e-015 -2.23633e-016
rhumerus -44.9805 27.7334 -85.5457
rradius 84.6615
rwrist -10.0054
rhand -26.778 38.4596
rfingers 7.12502
rthumb -0.205698 8.47995
lclavicle -7.37367e-015 -2.23633e-016
lhumerus -50.3706 -22.4672 91.2624
lradius 81.9066
lwrist 11.5473
lhand -16.5776 49.0939
lfingers 7.12502
lthumb 9.64295 78.8532
rfemur -9.03072 -8.02507 30.0433
rtibia 28.8751
rfoot -14.296 13.8182
rtoes -3.72877
lfemur -45.2956 1.80299 -21.9949
ltibia 86.8136
lfoot -10.5565 17.7695
ltoes -36.2623
290
root 12.5429 15.6314 -38.3727 -231.144 -78.3676 -119.15
lowerback 6.01554 1.07159 9.31263
upperback 2.17868 1.85955 2.75406
thorax -0.893804 0.890544 -2.47722
lowerneck -23.7746 4.18641 -3.75454
upperneck 31.6572 7.81784 -1.68352
head 14.938 2.37212 1.40063
rclavicle -7.91411e-015 -1.35671e-014
rhumerus -45.0067 28.1449 -85.4717
rradius 85.2162
rwrist -10.0132
rhand -27.3122 38.6462
rfingers 7.12502
rthumb -0.721626 8.66765
lclavicle -7.91411e-015 -1.35671e-014
lhumerus -52.1927 -22.2881 91.9667
lradius 81.7018
lwrist 12.0539
lhand -22.7269 58.0149
lfingers 7.12502
lthumb 3.70684 87.9625
rfemur -7.67837 -8.37524 29.8985
rtibia 27.9891
rfoot -11.7411 14.3477
rtoes -1.69529
lfemur -46.2468 -0.382974 -21.1862
ltibia 84.6151
lfoot -17.2159 12.4736
ltoes -2.36721
291
root 12.2881 15.7057 -38.4013 -232.408 -78.4747 -117.676
lowerback 5.60439 1.47063 9.69629
upperback 2.1312 2.36568 2.60145
thorax -0.63337 1.15622 -2.86231
lowerneck -24.3859 3.91828 -3.34963
upperneck 32.2725 7.41582 -1.92306
head 15.3995 2.17374 1.18269
rclavicle 3.11222e-014 3.22031e-014
rhumerus -45.1662 27.4651 -85.7131
rradius 85.7551
rwrist -9.185
rhand -27.6095 39.1485
rfingers 7.12502
rthumb -1.00874 9.17119
lclavicle 3.11222e-014 3.22031e-014
lhumerus -53.8833 -22.7133 92.5212
lradius 81.5422
lwrist 12.8252
lhand -13.3273 44.8299
lfingers 7.12502
lthumb 12.7777 74.4189
rfemur -6.5706 -8.75735 29.5699
rtibia 27.2969
rfoot -9.54091 14.4433
rtoes -4.20017
lfemur -46.9847 -1.85534 -21.4985
ltibia 81.6049
lfoot -16.9393 12.7094
ltoes -7.05675
292
root 12.0288 15.7351 -38.4407 -233.003 -78.3852 -116.76
lowerback 4.94713 1.44867 9.73656
upperback 2.02282 2.27426 2.43061
thorax -0.381781 1.12461 -3.03812
lowerneck -23.071 4.56207 -2.60337
upperneck 31.4041 7.97212 -2.03125
head 14.739 2.55454 1.07498
rclavicle -1.57785e-015 1.09332e-015
rhumerus -45.3344 28.2753 -86.9254
rradius 86.1582
rwrist -8.48357
rhand -27.442 39.5706
rfingers 7.12502
rthumb -0.846963 9.5925
lclavicle -1.57785e-015 1.09332e-015
lhumerus -55.9662 -22.4198 92.6672
lradius 81.8431
lwrist 14.6435
lhand -21.6945 53.1474
lfingers 7.12502
lthumb 4.70377 83.0752
rfemur -5.3572 -8.66222 29.4245
rtibia 26.2358
rfoot -7.06195 14.2346
rtoes -6.84735
lfemur -47.95 0.208268 -22.3617
ltibia 78.3017
lfoot -13.7169 13.2474
ltoes -26.8262
293
root 11.787 15.7607 -38.4881 -235.22 -78.421 -114.45
lowerback 4.70562 1.50221 9.27075
upperback 1.95964 2.29787 2.79455
thorax -0.345724 1.12947 -2.39905
lowerneck -23.2993 4.77178 -1.74655
upperneck 31.8425 8.31508 -3.02142
head 15.1014 2.62102 0.603692
rclavicle 1.00324e-014 -8.12532e-015
rhumerus -45.7154 29.2917 -87.2048
rradius 86.7885
rwrist -8.11655
rhand -27.1649 39.7175
rfingers 7.12502
rthumb -0.579377 9.73852
lclavicle 1.00324e-014 -8.12532e-015
lhumerus -57.69 -22.0923 93.7289
lradius 81.7938
lwrist 16.0479
lhand -21.2224 52.2071
lfingers 7.12502
lthumb 5.15965 82.1243
rfemur -4.07466 -8.5995 29.4098
rtibia 25.3467
rfoot -4.76156 13.5924
rtoes -9.64012
lfemur -48.44 0.576499 -22.9724
ltibia 74.6651
lfoot -13.6577 11.9985
ltoes -29.8184
294
root 11.5141 15.8775 -38.5206 -237.419 -78.2917 -112.164
lowerback 4.48173 1.70129 9.26841
upperback 1.9074 2.53331 3.07414
thorax -0.261671 1.24371 -2.11047
lowerneck -23.3641 4.72972 -2.07
upperneck 32.0041 8.39497 -3.01145
head 15.1759 2.60579 0.679814
rclavicle -3.72224e-014 2.82274e-014
rhumerus -46.3171 29.5965 -87.5948
rradius 87.3539
rwrist -7.40959
rhand -27.3132 39.9833
rfingers 7.12502
rthumb -0.722622 10.0048
lclavicle -3.72224e-014 2.82274e-014
lhumerus -59.1866 -22.2128 94.6954
lradius 81.4783
lwrist 16.7105
lhand -21.5157 52.3381
lfingers 7.12502
lthumb 4.87643 82.262
rfemur -2.64191 -8.50901 29.4666
rtibia 24.1695
rfoot -2.10993 12.5135
rtoes -10.8901
lfemur -48.7888 -0.835006 -22.2666
ltibia 70.9885
lfoot -17.1245 6.222
ltoes -0.0766453
295
root 11.2534 15.9178 -38.5751 -240.24 -77.8931 -109.424
lowerback 4.37906 1.77233 9.45265
upperback 1.98399 2.59735 3.56962
thorax -0.130391 1.27146 -1.6956
lowerneck -23.7388 4.77832 -2.95489
upperneck 32.2829 8.76167 -2.70481
head 15.3256 2.67214 1.03764
rclavicle -1.94312e-014 -7.35503e-014
rhumerus -46.5789 30.1488 -87.8718
rradius 87.5482
rwrist -6.20614
rhand -28.1694 40.2515
rfingers 7.12502
rthumb -1.54949 10.2774
lclavicle -1.94312e-014 -7.35503e-014
lhumerus -60.3688 -21.9442 95.4706
lradius 81.1338
lwrist 17.4891
lhand -21.4168 52.5426
lfingers 7.12502
lthumb 4.97189 82.4643
rfemur -1.08595 -8.20668 29.9236
rtibia 23.0077
rfoot 0.449494 10.9922
rtoes -10.8244
lfemur -48.6602 -0.511878 -22.3659
ltibia 66.8765
lfoot -17.1251 4.09253
ltoes -0.18523
296
root 10.9895 15.9439 -38.6466 -243.074 -77.2239 -106.831
lowerback 4.5554 2.78516 11.0757
upperback 1.72246 4.07319 2.4839
thorax -0.156524 2.0237 -3.76201
lowerneck -23.3586 4.30998 -0.703862
upperneck 32.5947 7.0442 -2.44083
head 15.4616 2.28398 0.430049
rclavicle 1.35422e-014 1.63003e-014
rhumerus -47.3408 26.4662 -89.5338
rradius 87.6529
rwrist -5.09101
rhand -28.5154 40.5435
rfingers 7.12502
rthumb -1.88371 10.572
lclavicle 1.35422e-014 1.63003e-014
lhumerus -62.2618 -26.3388 95.2988
lradius 80.8875
lwrist 18.969
lhand -20.8992 52.2702
lfingers 7.12502
lthumb 5.47165 82.1795
rfemur 0.56944 -7.22961 30.7016
rtibia 21.8578
rfoot 2.81205 8.78677
rtoes -5.28669
lfemur -48.2706 0.640047 -22.5897
ltibia 62.564
lfoot -16.7951 2.28185
ltoes 0.0454524
297
root 10.7192 15.991 -38.7067 -244.719 -76.6594 -105.358
lowerback 4.53982 2.98187 11.1197
upperback 1.69291 4.32893 2.7687
thorax -0.159927 2.14359 -3.49571
lowerneck -23.2385 4.63794 -0.397826
upperneck 32.6704 7.46639 -2.60514
head 15.4993 2.47291 0.391432
rclavicle -6.4605e-015 -3.77691e-014
rhumerus -47.65 26.9982 -89.8835
rradius 88.0062
rwrist -5.78306
rhand -27.4946 40.9816
rfingers 7.12502
rthumb -0.897774 11.0037
lclavicle -6.4605e-015 -3.77691e-014
lhumerus -63.6698 -26.5626 95.9218
lradius 80.5562
lwrist 19.8872
lhand -20.8944 51.5452
lfingers 7.12502
lthumb 5.47628 81.4544
rfemur 1.7324 -6.50984 31.2451
rtibia 21.5284
rfoot 4.27952 6.61438
rtoes -0.844948
lfemur -47.7125 1.50935 -22.9313
ltibia 57.9683
lfoot -16.4842 0.560253
ltoes -1.28586
298
root 10.4501 16.0287 -38.7512 -245.973 -76.5797 -104.12
lowerback 4.16374 2.30141 10.055
upperback 1.90151 3.28485 3.94775
thorax -0.0121029 1.60897 -1.64574
lowerneck -23.6226 5.61597 -1.86607
upperneck 32.7566 9.68695 -2.99285
head 15.606 3.12808 0.924859
rclavicle -1.20016e-014 -2.56432e-014
rhumerus -47.5736 30.9213 -89.6248
rradius 88.2618
rwrist -7.17231
rhand -26.5515 41.4376
rfingers 7.12502
rthumb 0.0130926 11.4578
lclavicle -1.20016e-014 -2.56432e-014
lhumerus -64.5735 -22.9844 96.8175
lradius 80.3471
lwrist 20.3144
lhand -20.1947 50.0398
lfingers 7.12502
lthumb 6.15186 79.9305
rfemur 2.575 -6.46154 31.202
rtibia 21.5882
rfoot 5.34432 5.04875
rtoes 3.2079
lfemur -47.1688 2.9167 -24.1595
ltibia 53.204
lfoot -15.2309 -1.08179
ltoes -9.4177
299
root 10.1812 16.0593 -38.7776 -247.975 -76.8742 -101.968
lowerback 3.81493 3.06505 10.8438
upperback 1.58736 4.34131 2.87753
thorax 0.106614 2.15928 -3.19166
lowerneck -23.3749 5.18851 -0.274523
upperneck 32.9227 8.35737 -2.87537
head 15.6894 2.80399 0.441315
rclavicle 2.84138e-014 1.67476e-014
rhumerus -48.235 28.211 -90.7987
rradius 88.4823
rwrist -7.43964
rhand -26.5602 41.4727
rfingers 7.12502
rthumb 0.00471034 11.4929
lclavicle 2.84138e-014 1.67476e-014
lhumerus -66.6079 -26.4086 97.3516
lradius 80.4701
lwrist 21.3688
lhand -18.7547 48.4088
lfingers 7.12502
lthumb 7.54191 78.2544
rfemur 3.00462 -6.94686 30.7576
rtibia 22.1977
rfoot 5.90853 4.74305
rtoes 2.34947
lfemur -46.5976 3.82344 -25.709
ltibia 48.4324
lfoot -13.317 -2.3307
ltoes -11.0659
300
root 9.9176 16.0937 -38.7929 -249.991 -77.2946 -99.7601
lowerback 3.40003 3.42007 11.0171
upperback 1.36891 4.79705 2.3945
thorax 0.227343 2.39758 -3.7699
lowerneck -23.0773 5.03554 0.22468
upperneck 32.9077 7.90819 -2.84397
head 15.6286 2.69636 0.273466
rclavicle 3.98812e-014 3.96575e-014
rhumerus -48.9659 27.8571 -91.5798
rradius 89.097
rwrist -7.49377
rhand -27.8079 40.6276
rfingers 7.12502
rthumb -1.20041 10.6513
lclavicle 3.98812e-014 3.96575e-014
lhumerus -68.1383 -28.1342 98.0376
lradius 80.4769
lwrist 22.1381
lhand -17.7244 47.407
lfingers 7.12502
lthumb 8.53631 77.2145
rfemur 3.21741 -7.88284 30.1172
rtibia 23.2519
rfoot 6.16751 5.15195
rtoes -5.36179
lfemur -45.7868 3.24715 -26.7955
ltibia 43.8872
lfoot -11.8578 -2.00235
ltoes -10.3161
